<?xml version="1.0" encoding="UTF-8"?>
<!DOCTYPE svg PUBLIC "-//W3C//DTD SVG 1.1//EN" "http://www.w3.org/Graphics/SVG/1.1/DTD/svg11.dtd">
<svg xmlns="http://www.w3.org/2000/svg" version="1.1" width="36px" height="40px" style="shape-rendering:geometricPrecision; text-rendering:geometricPrecision; image-rendering:optimizeQuality; fill-rule:evenodd; clip-rule:evenodd" xmlns:xlink="http://www.w3.org/1999/xlink">
<g><path style="opacity:1" fill="#020202" d="M -0.5,-0.5 C 1.5,-0.5 3.5,-0.5 5.5,-0.5C 5.5,0.833333 5.5,2.16667 5.5,3.5C 3.14166,3.2525 1.14166,3.91917 -0.5,5.5C -0.5,3.5 -0.5,1.5 -0.5,-0.5 Z"/></g>
<g><path style="opacity:1" fill="#dddddd" d="M 5.5,-0.5 C 6.83333,-0.5 8.16667,-0.5 9.5,-0.5C 9.5,0.833333 9.5,2.16667 9.5,3.5C 14.8333,3.5 20.1667,3.5 25.5,3.5C 25.5,2.16667 25.5,0.833333 25.5,-0.5C 26.8333,-0.5 28.1667,-0.5 29.5,-0.5C 29.5,0.833333 29.5,2.16667 29.5,3.5C 31.8583,3.2525 33.8583,3.91917 35.5,5.5C 35.5,16.1667 35.5,26.8333 35.5,37.5C 34.5,37.8333 33.8333,38.5 33.5,39.5C 22.8333,39.5 12.1667,39.5 1.5,39.5C 1.16667,38.5 0.5,37.8333 -0.5,37.5C -0.5,26.8333 -0.5,16.1667 -0.5,5.5C 1.14166,3.91917 3.14166,3.2525 5.5,3.5C 5.5,2.16667 5.5,0.833333 5.5,-0.5 Z"/></g>
<g><path style="opacity:1" fill="#010001" d="M 9.5,-0.5 C 14.8333,-0.5 20.1667,-0.5 25.5,-0.5C 25.5,0.833333 25.5,2.16667 25.5,3.5C 20.1667,3.5 14.8333,3.5 9.5,3.5C 9.5,2.16667 9.5,0.833333 9.5,-0.5 Z"/></g>
<g><path style="opacity:1" fill="#020202" d="M 29.5,-0.5 C 31.5,-0.5 33.5,-0.5 35.5,-0.5C 35.5,1.5 35.5,3.5 35.5,5.5C 33.8583,3.91917 31.8583,3.2525 29.5,3.5C 29.5,2.16667 29.5,0.833333 29.5,-0.5 Z"/></g>
<g><path style="opacity:1" fill="#010101" d="M 3.5,13.5 C 12.8333,13.5 22.1667,13.5 31.5,13.5C 31.5,20.8333 31.5,28.1667 31.5,35.5C 22.1667,35.5 12.8333,35.5 3.5,35.5C 3.5,28.1667 3.5,20.8333 3.5,13.5 Z"/></g>
<g><path style="opacity:1" fill="#dfdedf" d="M 17.5,21.5 C 20.8333,21.5 24.1667,21.5 27.5,21.5C 27.5,24.8333 27.5,28.1667 27.5,31.5C 24.1667,31.5 20.8333,31.5 17.5,31.5C 17.5,28.1667 17.5,24.8333 17.5,21.5 Z"/></g>
<g><path style="opacity:1" fill="#0e0e0e" d="M -0.5,37.5 C 0.5,37.8333 1.16667,38.5 1.5,39.5C 0.833333,39.5 0.166667,39.5 -0.5,39.5C -0.5,38.8333 -0.5,38.1667 -0.5,37.5 Z"/></g>
<g><path style="opacity:1" fill="#090909" d="M 35.5,37.5 C 35.5,38.1667 35.5,38.8333 35.5,39.5C 34.8333,39.5 34.1667,39.5 33.5,39.5C 33.8333,38.5 34.5,37.8333 35.5,37.5 Z"/></g>
</svg>
